<svg xmlns="http://www.w3.org/2000/svg" width="32" height="32" fill="none"><path fill="#191A23" d="M13.48 5.333c-.106.4-.146.84-.146 1.334v4H6.667V8c0-1.467 1.2-2.667 2.667-2.667z" opacity=".6"/><path fill="#191A23" d="M13.334 25.333V10.667H6.667q-4 0-4 4v10.666q0 4 4 4h10.667q-4 0-4-4M9 22.667c0 .546-.453 1-1 1s-1-.454-1-1v-5.334c0-.546.454-1 1-1 .547 0 1 .454 1 1z"/><path fill="#191A23" d="M18.666 29.333h-1.333q-4 0-4-4V6.667q0-4 4-4h8q4 0 4 4v18.666q0 4-4 4H24" opacity=".4"/><path fill="#191A23" d="M24 24v5.333h-5.333V24c0-.733.6-1.333 1.333-1.333h2.667c.733 0 1.333.6 1.333 1.333M18.667 18.333c-.547 0-1-.453-1-1v-6.666c0-.547.453-1 1-1s1 .453 1 1v6.666c0 .547-.453 1-1 1M24 18.333c-.547 0-1-.453-1-1v-6.666c0-.547.453-1 1-1s1 .453 1 1v6.666c0 .547-.453 1-1 1"/></svg>