<svg xmlns="http://www.w3.org/2000/svg" width="32" height="32" fill="none"><path fill="#191A23" d="M14.134 5.533V8H12.16c-2.146 0-3.226 1.08-3.226 3.227V24h-3.4c-1.907 0-2.867-.96-2.867-2.867v-15.6c0-1.906.96-2.866 2.867-2.866h5.733c1.907 0 2.867.96 2.867 2.866"/><path fill="#191A23" d="M23.16 11.227v14.88c0 2.146-1.066 3.226-3.213 3.226H12.16c-2.146 0-3.226-1.08-3.226-3.226v-14.88C8.934 9.08 10.014 8 12.16 8h7.787c2.147 0 3.213 1.08 3.213 3.227" opacity=".4"/><path fill="#191A23" d="M29.333 5.533v15.6c0 1.907-.96 2.867-2.867 2.867H23.16V11.227C23.16 9.08 22.093 8 19.946 8h-2.08V5.533c0-1.906.96-2.866 2.867-2.866h5.733c1.907 0 2.867.96 2.867 2.866M18.666 15.667h-5.333c-.547 0-1-.454-1-1 0-.547.453-1 1-1h5.333c.547 0 1 .453 1 1s-.453 1-1 1M18.666 19.667h-5.333c-.547 0-1-.454-1-1 0-.547.453-1 1-1h5.333c.547 0 1 .453 1 1s-.453 1-1 1M17 25.333v4h-2v-4c0-.546.453-1 1-1s1 .454 1 1"/></svg>