<svg xmlns="http://www.w3.org/2000/svg" width="32" height="32" fill="none"><path fill="#191A23" d="M29.334 28.333H2.667c-.547 0-1 .454-1 1 0 .547.453 1 1 1h26.667c.546 0 1-.453 1-1s-.454-1-1-1"/><path fill="#191A23" d="M22.667 2.667H9.333C5.333 2.667 4 5.053 4 8v21.333h24V8c0-2.947-1.333-5.333-5.333-5.333" opacity=".4"/><path fill="#191A23" d="M13.333 23h-4c-.547 0-1-.453-1-1s.453-1 1-1h4c.547 0 1 .453 1 1s-.453 1-1 1M22.667 23h-4c-.547 0-1-.453-1-1s.453-1 1-1h4c.547 0 1 .453 1 1s-.453 1-1 1M13.333 17h-4c-.547 0-1-.453-1-1s.453-1 1-1h4c.547 0 1 .453 1 1s-.453 1-1 1M22.667 17h-4c-.547 0-1-.453-1-1s.453-1 1-1h4c.547 0 1 .453 1 1s-.453 1-1 1M13.333 11h-4c-.547 0-1-.453-1-1s.453-1 1-1h4c.547 0 1 .453 1 1s-.453 1-1 1M22.667 11h-4c-.547 0-1-.453-1-1s.453-1 1-1h4c.547 0 1 .453 1 1s-.453 1-1 1"/></svg>