<svg xmlns="http://www.w3.org/2000/svg" width="9" height="7" fill="none"><path fill="#fff" d="M8.385.835a3.5 3.5 0 0 1-.852.243c.137-.024.339-.27.419-.37a1.6 1.6 0 0 0 .274-.509c0-.013.014-.033 0-.043a.05.05 0 0 0-.045 0 4.3 4.3 0 0 1-1.009.392.07.07 0 0 1-.07-.017 1 1 0 0 0-.089-.092 1.8 1.8 0 0 0-.481-.312 1.7 1.7 0 0 0-.75-.124A1.8 1.8 0 0 0 5.067.2c-.218.12-.41.283-.564.479a1.8 1.8 0 0 0-.343.686 1.9 1.9 0 0 0-.017.726c0 .04 0 .047-.036.04C2.712 1.926 1.565 1.43.63.365.588.317.566.317.533.364c-.407.62-.21 1.6.3 2.084q.102.098.213.187a1.75 1.75 0 0 1-.67-.187q-.059-.036-.062.036-.009.097 0 .196A1.78 1.78 0 0 0 1.41 4.1q.106.045.221.068c-.216.043-.438.05-.656.02-.047-.01-.065.015-.047.06.288.785.913 1.024 1.371 1.157.063.01.125.01.196.026l-.012.012c-.135.247-.681.413-.932.5a3.35 3.35 0 0 1-1.43.184c-.077-.012-.094-.01-.114 0s0 .031.022.05a4.687 4.687 0 0 0 1.254.569c1.72.475 3.655.126 4.946-1.158C7.245 4.58 7.6 3.19 7.6 1.798c0-.053.065-.085.102-.112.257-.2.483-.437.672-.702.033-.04.05-.09.047-.141 0-.03 0-.024-.037-.008"/></svg>