<svg width="17" height="17" viewBox="0 0 17 17" fill="none" xmlns="http://www.w3.org/2000/svg">
<path d="M0 8.25C0 3.69365 3.69365 0 8.25 0C12.8063 0 16.5 3.69365 16.5 8.25C16.5 12.8063 12.8063 16.5 8.25 16.5C3.69365 16.5 0 12.8063 0 8.25Z" fill="#686A79"/>
<path d="M10.269 8.78704L10.504 7.29334H9.05588V6.32244C9.05588 5.91401 9.25806 5.51491 9.90456 5.51491H10.5722V4.24294C10.1834 4.18093 9.79053 4.14739 9.39676 4.14258C8.20484 4.14258 7.42669 4.85908 7.42669 6.1544V7.29334H6.10547V8.78704H7.42669V12.3999H9.05588V8.78704H10.269Z" fill="white"/>
</svg>
