<svg xmlns="http://www.w3.org/2000/svg" width="113" height="40" fill="none"><path fill="#B7B8C1" d="m8 40-8-8h8z"/><path fill="#191A23" d="M0 8a8 8 0 0 1 8-8h97a8 8 0 0 1 8 8v16a8 8 0 0 1-8 8H0z"/><path fill="#fff" fill-rule="evenodd" d="M25.6 9.6a.8.8 0 0 1 .773.595l.944 3.565L30 15.307a.8.8 0 0 1 0 1.386l-2.683 1.548-.944 3.564a.8.8 0 0 1-1.547 0l-.943-3.565-2.683-1.547a.8.8 0 0 1 0-1.386l2.683-1.548.944-3.564A.8.8 0 0 1 25.6 9.6" clip-rule="evenodd"/><path fill="#fff" d="M20.565 17.834a.8.8 0 0 0-1.365.566v.8h-.8a.8.8 0 0 0 0 1.6h.8v.8a.8.8 0 1 0 1.6 0v-.8h.8a.8.8 0 1 0 0-1.6h-.8v-.8a.8.8 0 0 0-.235-.566M20.565 9.834a.8.8 0 0 0-1.365.566v.8h-.8a.8.8 0 0 0 0 1.6h.8v.8a.8.8 0 1 0 1.6 0v-.8h.8a.8.8 0 1 0 0-1.6h-.8v-.8a.8.8 0 0 0-.235-.566M37.19 21v-9.758h6.328v.826H38.1v3.556h4.704v.826H38.1V21zm7.957 0v-9.758h6.384v.826h-5.474v3.556h4.914v.826h-4.914v3.724h5.474V21zm7.349 0 3.626-9.758h.77L60.504 21h-.994l-2.996-8.484L53.518 21zm1.792-2.506.294-.826h3.85l.308.826zM63.143 21v-8.932h-3.416v-.826h7.742v.826h-3.402V21zm9.085.14q-1.68 0-2.576-.938t-.896-2.73v-6.23h.91v6.132q0 .952.266 1.61.266.645.826.98.575.322 1.47.322.882 0 1.456-.336.574-.35.854-.994.28-.658.28-1.61v-6.104h.896v6.16q0 1.82-.896 2.786-.895.952-2.59.952m5.786-.14v-9.758h2.744q1.079 0 1.778.322.713.322 1.064.924.364.602.364 1.456 0 1.162-.672 1.848-.671.686-1.946.826-.196.015-.476.028h-1.946V21zm5.544 0-2.59-4.48.938-.126L84.608 21zm-4.634-5.166h1.736q.743 0 1.274-.196.533-.21.812-.616.294-.42.294-1.078t-.294-1.064a1.7 1.7 0 0 0-.826-.616q-.531-.195-1.26-.196h-1.736zM86.231 21v-9.758h6.384v.826h-5.474v3.556h4.914v.826h-4.914v3.724h5.474V21zm8.19 0v-9.758h2.631q2.367 0 3.668 1.302 1.316 1.288 1.316 3.654 0 2.325-1.302 3.57Q99.447 21 97.039 21zm.91-.84h1.623q1.33 0 2.255-.42a2.92 2.92 0 0 0 1.399-1.302q.49-.882.49-2.268t-.49-2.296a2.97 2.97 0 0 0-1.386-1.344q-.91-.448-2.183-.448H95.33z"/></svg>