<svg xmlns="http://www.w3.org/2000/svg" width="105" height="22" fill="none"><path fill="#191A23" d="M2.636 7.08h12.403V9.64H2.636zM14.6 0h2.998v16.745H14.6zM0 0h2.972v16.745H0zM27.08 17.03q-2.172-.001-3.877-.776T20.49 13.98q-.982-1.5-.982-3.644 0-2.118.982-3.617a6.5 6.5 0 0 1 2.713-2.326q1.705-.801 3.876-.801t3.85.801q1.706.801 2.688 2.326.982 1.499.982 3.617 0 2.145-.982 3.644t-2.688 2.274q-1.68.775-3.85.775m0-2.352q1.265 0 2.299-.491a4.14 4.14 0 0 0 1.654-1.473q.62-.982.62-2.378 0-1.37-.62-2.351a4.03 4.03 0 0 0-1.654-1.525q-1.008-.516-2.3-.517-1.24 0-2.3.517A4.26 4.26 0 0 0 23.1 7.96q-.62.982-.62 2.377t.62 2.378a4.14 4.14 0 0 0 1.654 1.473 5.5 5.5 0 0 0 2.326.49M36.13 3.876h2.92v12.869h-2.92zm8.372-.284q1.137 0 2.093.31t1.628.956q.697.62 1.06 1.576.387.93.387 2.197v8.114h-2.92V9.199q0-1.576-.775-2.325-.749-.776-2.404-.776-1.24 0-2.273.543a4.8 4.8 0 0 0-1.654 1.37 3.5 3.5 0 0 0-.75 1.809l-.026-1.396a5.5 5.5 0 0 1 .569-1.809 5.4 5.4 0 0 1 1.163-1.55 5.2 5.2 0 0 1 1.705-1.085 6.1 6.1 0 0 1 2.197-.388m10.362 0q1.137 0 2.067.31a4.4 4.4 0 0 1 1.654.956q.698.62 1.085 1.576.388.93.388 2.197v8.114h-2.946V9.199q0-1.576-.775-2.325-.75-.776-2.403-.776-1.24 0-2.274.543a4.7 4.7 0 0 0-1.68 1.37 3.6 3.6 0 0 0-.723 1.809l-.052-1.448a5.2 5.2 0 0 1 .594-1.783 6 6 0 0 1 1.189-1.524 5.5 5.5 0 0 1 1.731-1.085 5.8 5.8 0 0 1 2.145-.388M73.026 12.507h2.817a4.8 4.8 0 0 1-1.06 2.352q-.825 1.006-2.222 1.602-1.395.568-3.36.568-2.247 0-3.979-.8-1.731-.828-2.739-2.327-.982-1.498-.982-3.566 0-2.041.956-3.566.982-1.524 2.688-2.351t3.954-.827q2.3 0 3.85.827a4.98 4.98 0 0 1 2.326 2.429q.75 1.602.62 4.057H64.447q.13 1.085.724 1.938t1.602 1.344 2.377.49q1.5 0 2.507-.594 1.033-.62 1.37-1.576m-4.005-6.564q-1.783 0-2.92.853t-1.473 2.197h8.347q-.13-1.447-1.189-2.249-1.06-.8-2.765-.8M89.024 6.228l-9.458 9.07-.336-.879h9.949v2.326h-12.12v-2.326l9.51-9.096.362.905h-9.872V3.876h11.965zM90.033 3.876h3.1l5.247 12.352-2.533.517zm14.471 0-8.32 18.037h-3.076l3.566-7.054 4.703-10.983z"/></svg>