<svg xmlns="http://www.w3.org/2000/svg" width="32" height="32" fill="none"><path fill="#191A23" d="M29.333 30.333H2.666c-.547 0-1-.453-1-1s.453-1 1-1h26.667c.546 0 1 .454 1 1 0 .547-.454 1-1 1"/><path fill="#191A23" d="M28 13.307v16.026H3.934L4 13.293c0-.813.374-1.586 1.027-2.093l9.333-7.253c.96-.76 2.32-.76 3.28 0l1.787 1.386 5.907 4.587 1.64 1.28A2.65 2.65 0 0 1 28 13.307" opacity=".4"/><path fill="#191A23" d="M17.333 22.667h-2.667c-1.107 0-2 .893-2 2v4.666h6.667v-4.666c0-1.107-.894-2-2-2M12.666 18.333H9.999c-.733 0-1.333-.6-1.333-1.333v-2c0-.733.6-1.333 1.333-1.333h2.667c.733 0 1.333.6 1.333 1.333v2c0 .733-.6 1.333-1.333 1.333M22 18.333h-2.667C18.6 18.333 18 17.733 18 17v-2c0-.733.6-1.333 1.333-1.333H22c.733 0 1.333.6 1.333 1.333v2c0 .733-.6 1.333-1.333 1.333M25.332 9.92l-5.906-4.587h4.546c.734 0 1.334.587 1.334 1.32z"/></svg>