<svg xmlns="http://www.w3.org/2000/svg" width="9" height="9" fill="none"><path fill="#fff" d="M2.752 4.129a1.376 1.376 0 1 1 2.752-.001 1.376 1.376 0 0 1-2.752 0m-.744 0a2.12 2.12 0 1 0 4.24 0 2.12 2.12 0 0 0-4.24 0m3.827-2.204a.496.496 0 1 0 .496-.496.496.496 0 0 0-.496.496M2.46 7.489c-.402-.018-.621-.085-.767-.142a1.3 1.3 0 0 1-.474-.309 1.3 1.3 0 0 1-.309-.474C.853 6.419.786 6.2.768 5.797.748 5.362.744 5.231.744 4.13c0-1.103.004-1.233.024-1.669.018-.402.086-.62.142-.766.075-.193.164-.33.309-.475.144-.145.281-.234.474-.31.146-.056.365-.123.767-.141.435-.02.566-.024 1.667-.024 1.102 0 1.233.004 1.668.024.403.018.621.086.767.142.193.075.33.164.475.309.144.144.233.282.308.475.057.145.124.364.142.766.02.436.024.566.024 1.669 0 1.102-.004 1.233-.024 1.668-.018.403-.085.621-.142.767a1.3 1.3 0 0 1-.308.474 1.3 1.3 0 0 1-.475.31c-.145.056-.364.123-.767.141-.435.02-.565.024-1.668.024S2.895 7.51 2.46 7.49M2.426.025c-.44.02-.74.09-1.002.192a2 2 0 0 0-.731.476c-.23.23-.37.46-.476.731-.102.263-.172.563-.192 1.003S0 3.007 0 4.129C0 5.249.005 5.39.025 5.83s.09.74.192 1.002c.105.271.246.502.476.731.23.23.46.37.731.477.263.102.562.171 1.002.191s.58.025 1.701.025 1.262-.004 1.702-.025c.44-.02.74-.09 1.002-.191a2 2 0 0 0 .731-.477c.23-.23.37-.46.476-.731.102-.262.172-.563.192-1.002s.025-.581.025-1.702c0-1.122-.005-1.262-.025-1.702s-.09-.74-.192-1.003a2 2 0 0 0-.476-.731 2 2 0 0 0-.73-.476A3 3 0 0 0 5.828.025C5.39.005 5.25 0 4.128 0S2.866.005 2.426.025"/></svg>