<svg width="17" height="17" viewBox="0 0 17 17" fill="none" xmlns="http://www.w3.org/2000/svg">
<path d="M0 8.25C0 3.69365 3.69365 0 8.25 0C12.8063 0 16.5 3.69365 16.5 8.25C16.5 12.8063 12.8063 16.5 8.25 16.5C3.69365 16.5 0 12.8063 0 8.25Z" fill="#686A79"/>
<path d="M6.87687 8.27125C6.87687 7.51121 7.49266 6.89491 8.25247 6.89491C9.01229 6.89491 9.62841 7.51121 9.62841 8.27125C9.62841 9.03128 9.01229 9.64758 8.25247 9.64758C7.49266 9.64758 6.87687 9.03128 6.87687 8.27125ZM6.13307 8.27125C6.13307 9.44213 7.08192 10.3913 8.25247 10.3913C9.42303 10.3913 10.3719 9.44213 10.3719 8.27125C10.3719 7.10035 9.42303 6.15122 8.25247 6.15122C7.08192 6.15122 6.13307 7.10035 6.13307 8.27125ZM9.96049 6.06716C9.96045 6.16515 9.98946 6.26095 10.0439 6.34245C10.0982 6.42395 10.1756 6.48748 10.2661 6.52501C10.3566 6.56255 10.4561 6.5724 10.5522 6.55332C10.6483 6.53424 10.7366 6.48709 10.8059 6.41783C10.8752 6.34857 10.9224 6.26031 10.9415 6.16421C10.9607 6.06811 10.9509 5.96849 10.9135 5.87795C10.876 5.7874 10.8126 5.71 10.7311 5.65553C10.6497 5.60106 10.5539 5.57196 10.456 5.57192H10.4558C10.3245 5.57198 10.1986 5.62417 10.1057 5.71703C10.0128 5.80989 9.9606 5.93582 9.96049 6.06716ZM6.58498 11.6319C6.18256 11.6135 5.96384 11.5465 5.81849 11.4899C5.62578 11.4148 5.48829 11.3254 5.34373 11.181C5.19917 11.0366 5.10968 10.8992 5.03499 10.7065C4.97833 10.5611 4.9113 10.3423 4.89301 9.93975C4.873 9.50456 4.869 9.37383 4.869 8.27128C4.869 7.16873 4.87333 7.03836 4.89301 6.6028C4.91133 6.20027 4.97886 5.98185 5.03499 5.83609C5.11001 5.64333 5.19937 5.5058 5.34373 5.3612C5.48809 5.21659 5.62545 5.12708 5.81849 5.05237C5.96377 4.99569 6.18256 4.92864 6.58498 4.91034C7.02004 4.89033 7.15074 4.88633 8.25247 4.88633C9.35421 4.88633 9.48504 4.89066 9.92047 4.91034C10.3229 4.92868 10.5412 4.99622 10.687 5.05237C10.8797 5.12708 11.0172 5.21679 11.1617 5.3612C11.3063 5.5056 11.3954 5.64333 11.4705 5.83609C11.5271 5.98142 11.5941 6.20027 11.6124 6.6028C11.6324 7.03836 11.6364 7.16873 11.6364 8.27128C11.6364 9.37383 11.6324 9.5042 11.6124 9.93975C11.5941 10.3423 11.5268 10.5611 11.4705 10.7065C11.3954 10.8992 11.3061 11.0368 11.1617 11.181C11.0174 11.3253 10.8797 11.4148 10.687 11.4899C10.5417 11.5465 10.3229 11.6136 9.92047 11.6319C9.4854 11.6519 9.35471 11.6559 8.25247 11.6559C7.15024 11.6559 7.01991 11.6519 6.58498 11.6319ZM6.5508 4.16758C6.11141 4.1876 5.81116 4.25729 5.54895 4.35935C5.27739 4.46475 5.04751 4.60614 4.81779 4.83557C4.58807 5.06499 4.44708 5.2953 4.34171 5.56694C4.23968 5.82939 4.17001 6.12956 4.15 6.56908C4.12966 7.00929 4.125 7.15003 4.125 8.27125C4.125 9.39246 4.12966 9.5332 4.15 9.97341C4.17001 10.413 4.23968 10.7131 4.34171 10.9756C4.44708 11.247 4.5881 11.4776 4.81779 11.7069C5.04747 11.9362 5.27739 12.0774 5.54895 12.1831C5.81165 12.2852 6.11141 12.3549 6.5508 12.3749C6.99112 12.3949 7.13158 12.3999 8.25247 12.3999C9.37336 12.3999 9.51406 12.3953 9.95415 12.3749C10.3936 12.3549 10.6936 12.2852 10.956 12.1831C11.2274 12.0774 11.4574 11.9363 11.6872 11.7069C11.9169 11.4775 12.0576 11.247 12.1632 10.9756C12.2653 10.7131 12.3353 10.4129 12.355 9.97341C12.375 9.53287 12.3796 9.39246 12.3796 8.27125C12.3796 7.15003 12.375 7.00929 12.355 6.56908C12.3349 6.12952 12.2653 5.82922 12.1632 5.56694C12.0576 5.29547 11.9165 5.06535 11.6872 4.83557C11.4578 4.60578 11.2274 4.46475 10.9563 4.35935C10.6936 4.25729 10.3935 4.18727 9.95448 4.16758C9.51439 4.14757 9.37369 4.14258 8.2528 4.14258C7.13191 4.14258 6.99112 4.14724 6.5508 4.16758Z" fill="white"/>
</svg>
