<svg xmlns="http://www.w3.org/2000/svg" width="48" height="48" fill="none"><path fill="#191A23" d="M21.5 4.9c1.38-1.18 3.64-1.18 5.04 0l3.16 2.72c.6.52 1.72.94 2.52.94h3.4c2.12 0 3.86 1.74 3.86 3.86v3.4c0 .78.42 1.92.94 2.52l2.72 3.16c1.18 1.38 1.18 3.64 0 5.04l-2.72 3.16c-.52.6-.94 1.72-.94 2.52v3.4c0 2.12-1.74 3.86-3.86 3.86h-3.4c-.78 0-1.92.42-2.52.94l-3.16 2.72c-1.38 1.18-3.64 1.18-5.04 0l-3.16-2.72c-.6-.52-1.72-.94-2.52-.94h-3.46c-2.12 0-3.86-1.74-3.86-3.86V32.2c0-.78-.42-1.9-.92-2.5l-2.7-3.18c-1.16-1.38-1.16-3.62 0-5l2.7-3.18c.5-.6.92-1.72.92-2.5v-3.42c0-2.12 1.74-3.86 3.86-3.86h3.46c.78 0 1.92-.42 2.52-.94z" opacity=".4"/><path fill="#191A23" d="M33.16 22.14c-.38-.54-1.02-.84-1.78-.84h-3.9c-.26 0-.5-.1-.66-.3a.96.96 0 0 1-.2-.74l.48-3.12c.2-.92-.42-1.98-1.34-2.28-.86-.32-1.88.12-2.28.72l-3.88 5.76v-.72c0-1.4-.6-1.98-2.08-1.98h-.98c-1.48 0-2.08.58-2.08 1.98v9.56c0 1.4.6 1.98 2.08 1.98h.98c1.4 0 2-.54 2.06-1.82l2.94 2.26c.4.4 1.3.62 1.94.62h3.7c1.28 0 2.56-.96 2.84-2.14l2.34-7.12c.26-.64.2-1.3-.18-1.82"/></svg>