<svg xmlns="http://www.w3.org/2000/svg" width="36" height="37" fill="none"><path fill="#191A23" fill-rule="evenodd" d="M.697 13.504C0 15.054 0 16.809 0 20.319v.808c0 7.483 0 11.224 2.325 13.549C4.649 37 8.39 37 15.873 37h3.968c7.483 0 11.224 0 13.548-2.325 2.325-2.324 2.325-6.065 2.325-13.548v-.808c0-3.51 0-5.264-.697-6.815-.696-1.551-2.008-2.717-4.63-5.049l-1.985-1.764C23.384 2.231 20.874 0 17.857 0S12.33 2.23 7.312 6.691L5.328 8.455c-2.624 2.332-3.935 3.498-4.631 5.049m7.115 3.28c-.416.946-.416 2.012-.416 4.144v.226c0 4.642 0 6.962 1.441 8.404S12.6 31 17.242 31h1.23c4.642 0 6.963 0 8.405-1.442s1.442-3.762 1.442-8.404v-.226c0-2.132 0-3.198-.417-4.145-.416-.947-1.201-1.668-2.772-3.11l-.616-.564c-3.16-2.9-4.74-4.35-6.657-4.35s-3.497 1.45-6.657 4.35l-.615.565c-1.572 1.441-2.357 2.162-2.773 3.11" clip-rule="evenodd"/><mask id="a" width="36" height="37" x="0" y="0" maskUnits="userSpaceOnUse" style="mask-type:alpha"><path fill="#B592FF" fill-rule="evenodd" d="M.697 13.504C0 15.054 0 16.809 0 20.319v.808c0 7.483 0 11.224 2.325 13.549C4.649 37 8.39 37 15.873 37h3.968c7.483 0 11.224 0 13.548-2.325 2.325-2.324 2.325-6.065 2.325-13.548v-.808c0-3.51 0-5.264-.697-6.815-.696-1.551-2.008-2.717-4.63-5.049l-1.985-1.764C23.384 2.231 20.874 0 17.857 0S12.33 2.23 7.312 6.691L5.328 8.455c-2.624 2.332-3.935 3.498-4.631 5.049m7.115 3.28c-.416.946-.416 2.012-.416 4.144v.226c0 4.642 0 6.962 1.441 8.404S12.6 31 17.242 31h1.23c4.642 0 6.963 0 8.405-1.442s1.442-3.762 1.442-8.404v-.226c0-2.132 0-3.198-.417-4.145-.416-.947-1.201-1.668-2.772-3.11l-.616-.564c-3.16-2.9-4.74-4.35-6.657-4.35s-3.497 1.45-6.657 4.35l-.615.565c-1.572 1.441-2.357 2.162-2.773 3.11" clip-rule="evenodd"/></mask><g mask="url(#a)"><circle cx="27.5" cy="9.5" r="16.5" fill="#B592FF"/><path fill="#FDA5D6" d="M12.565 19.805c1.845 0 2.767 0 3.528.182a6.61 6.61 0 0 1 4.887 4.887c.183.762.183 1.684.183 3.529s0 2.766-.183 3.528a6.61 6.61 0 0 1-4.887 4.887c-.76.182-1.683.182-3.528.182h-1.984c-3.704 0-5.556 0-6.97-.72a6.6 6.6 0 0 1-2.89-2.89c-.722-1.416-.722-3.268-.722-6.972v-6.613z"/></g></svg>