<svg width="17" height="17" viewBox="0 0 17 17" fill="none" xmlns="http://www.w3.org/2000/svg">
<path d="M0 8.25C0 3.69365 3.69365 0 8.25 0C12.8063 0 16.5 3.69365 16.5 8.25C16.5 12.8063 12.8063 16.5 8.25 16.5C3.69365 16.5 0 12.8063 0 8.25Z" fill="#686A79"/>
<path d="M12.3637 10.9873C12.3637 11.1234 12.3334 11.2633 12.2691 11.3994C12.2048 11.5356 12.1217 11.6641 12.012 11.7851C11.8267 11.9893 11.6225 12.1368 11.3919 12.2313C11.165 12.3258 10.9192 12.375 10.6545 12.375C10.2688 12.375 9.85669 12.2843 9.42184 12.099C8.987 11.9137 8.55216 11.6641 8.12109 11.3503C7.68625 11.0327 7.27409 10.681 6.88084 10.2915C6.49137 9.89828 6.13972 9.48613 5.82587 9.05506C5.51581 8.624 5.26625 8.19294 5.08475 7.76566C4.90325 7.33459 4.8125 6.92244 4.8125 6.52919C4.8125 6.27206 4.85787 6.02628 4.94862 5.79941C5.03937 5.56875 5.18306 5.357 5.38347 5.16794C5.62547 4.92972 5.89016 4.8125 6.16997 4.8125C6.27584 4.8125 6.38172 4.83519 6.47625 4.88056C6.57456 4.92594 6.66153 4.994 6.72959 5.09231L7.60684 6.32878C7.67491 6.42331 7.72406 6.51028 7.75809 6.59347C7.79213 6.67288 7.81103 6.75228 7.81103 6.82413C7.81103 6.91488 7.78456 7.00562 7.73163 7.09259C7.68247 7.17956 7.61063 7.27031 7.51988 7.36106L7.2325 7.65978C7.19091 7.70137 7.172 7.75053 7.172 7.81103C7.172 7.84128 7.17578 7.86775 7.18334 7.898C7.19469 7.92825 7.20603 7.95094 7.21359 7.97362C7.28166 8.09841 7.39887 8.261 7.56525 8.45763C7.73541 8.65425 7.91691 8.85466 8.11353 9.05506C8.31772 9.25547 8.51434 9.44075 8.71475 9.61091C8.91138 9.77728 9.07397 9.89072 9.20253 9.95878C9.22144 9.96634 9.24413 9.97769 9.27059 9.98903C9.30084 10.0004 9.33109 10.0042 9.36513 10.0042C9.42941 10.0042 9.47856 9.98147 9.52016 9.93988L9.80753 9.65628C9.90206 9.56175 9.99281 9.48991 10.0798 9.44453C10.1668 9.39159 10.2537 9.36513 10.3482 9.36513C10.4201 9.36513 10.4957 9.38025 10.5789 9.41428C10.6621 9.44831 10.7491 9.49747 10.8436 9.56175L12.0952 10.4503C12.1935 10.5184 12.2616 10.5978 12.3032 10.6923C12.341 10.7869 12.3637 10.8814 12.3637 10.9873Z" stroke="white" stroke-width="0.6875" stroke-miterlimit="10"/>
</svg>
