<svg xmlns="http://www.w3.org/2000/svg" width="32" height="32" fill="none"><path fill="#000" fill-rule="evenodd" d="M21.14 29.174a26.7 26.7 0 0 1-11.623-6.838 26.7 26.7 0 0 1-6.859-11.699c-.197-.692-.35-1.228-.351-1.964-.003-.841.271-1.895.683-2.628.708-1.261 2.23-2.877 3.543-3.542a4 4 0 0 1 3.611 0c1.123.568 2.374 1.84 3.07 2.912a4 4 0 0 1 0 4.36c-.23.356-.56.685-.942 1.066-.119.12-.25.205-.163.386a18.1 18.1 0 0 0 3.536 4.981 18.1 18.1 0 0 0 4.981 3.536c.188.09.262-.038.386-.163.381-.382.71-.712 1.066-.942a4 4 0 0 1 4.36 0c1.044.678 2.348 1.956 2.912 3.07a4 4 0 0 1 0 3.611c-.665 1.314-2.28 2.835-3.542 3.543-.733.412-1.787.686-2.628.684-.735-.003-1.272-.155-1.964-.352z" clip-rule="evenodd"/></svg>