<svg xmlns="http://www.w3.org/2000/svg" width="9" height="9" fill="none"><path stroke="#fff" stroke-miterlimit="10" stroke-width=".688" d="M7.895 6.519q.001.206-.095.412a1.705 1.705 0 0 1-.877.832 1.9 1.9 0 0 1-.737.143q-.58.002-1.233-.276a6.6 6.6 0 0 1-1.3-.748 11 11 0 0 1-1.24-1.06q-.585-.589-1.056-1.236a6.7 6.7 0 0 1-.741-1.29A3.2 3.2 0 0 1 .344 2.06q0-.387.136-.73Q.614.985.915.7 1.279.342 1.7.343a.7.7 0 0 1 .306.068.6.6 0 0 1 .254.212l.877 1.236q.101.141.151.265.052.122.053.23 0 .138-.08.269-.074.132-.21.268l-.288.299a.2.2 0 0 0-.06.151q0 .043.01.087.019.043.03.076.103.188.352.484.254.296.549.597c.204.2.4.386.601.556.197.167.36.28.488.348l.068.03q.044.016.094.015a.2.2 0 0 0 .155-.064l.288-.283a1.2 1.2 0 0 1 .272-.212.5.5 0 0 1 .269-.08q.106 0 .23.05t.265.147l1.251.889a.57.57 0 0 1 .208.242c.038.094.06.189.06.295Z"/></svg>