<svg xmlns="http://www.w3.org/2000/svg" width="32" height="32" fill="none"><path stroke="#191A23" stroke-linecap="round" stroke-linejoin="round" stroke-width="1.5" d="M12.666 26v-2H6c-.734 0-1.4-.293-1.88-.787a2.6 2.6 0 0 1-.787-1.88c0-1.373 1.067-2.52 2.413-2.653.08-.013.16-.013.254-.013h20c.093 0 .173 0 .253.013.64.053 1.2.333 1.627.773.546.534.84 1.294.773 2.12-.12 1.4-1.387 2.427-2.8 2.427h-6.52v2a3.334 3.334 0 0 1-6.667 0"/><path stroke="#191A23" stroke-linecap="round" stroke-linejoin="round" stroke-width="1.5" d="m26.894 7.067-.64 11.613c-.08-.013-.16-.013-.254-.013H6c-.093 0-.173 0-.253.013l-.64-11.613a3.995 3.995 0 0 1 3.973-4.4h13.84c2.36 0 4.214 2.04 3.974 4.4M10.653 2.667v6.666M16 2.667v2.666"/></svg>