<svg width="17" height="17" viewBox="0 0 17 17" fill="none" xmlns="http://www.w3.org/2000/svg">
<path d="M0 8.25C0 3.69365 3.69365 0 8.25 0C12.8063 0 16.5 3.69365 16.5 8.25C16.5 12.8063 12.8063 16.5 8.25 16.5C3.69365 16.5 0 12.8063 0 8.25Z" fill="#686A79"/>
<path d="M12.3448 5.63773C12.0723 5.75508 11.7859 5.8368 11.4926 5.88086C11.6297 5.85733 11.8315 5.61028 11.9118 5.51028C12.0338 5.35944 12.1268 5.18725 12.1861 5.00245C12.1861 4.98872 12.1998 4.96911 12.1861 4.95931C12.1792 4.95553 12.1714 4.95356 12.1636 4.95356C12.1557 4.95356 12.1479 4.95553 12.141 4.95931C11.8225 5.13194 11.4836 5.26369 11.1321 5.35146C11.1199 5.35521 11.1068 5.35554 11.0944 5.35243C11.082 5.34932 11.0707 5.34289 11.0616 5.33381C11.0343 5.30121 11.0048 5.27043 10.9735 5.24166C10.8301 5.11312 10.6675 5.00792 10.4915 4.9299C10.254 4.83237 9.99745 4.79013 9.74123 4.80637C9.49262 4.82209 9.24989 4.88883 9.02815 5.00245C8.8098 5.12223 8.61789 5.28497 8.46396 5.48087C8.30204 5.6825 8.18515 5.91651 8.12113 6.16713C8.06834 6.40553 8.06236 6.65193 8.1035 6.89261C8.1035 6.93379 8.1035 6.93967 8.06824 6.93379C6.67146 6.72791 5.52544 6.23184 4.58903 5.16715C4.54789 5.12009 4.52635 5.12009 4.49304 5.16715C4.08557 5.78675 4.28343 6.76712 4.79277 7.25143C4.86134 7.31613 4.93186 7.37888 5.0063 7.4377C4.77277 7.42111 4.54495 7.35777 4.33632 7.25143C4.29714 7.22594 4.27559 7.23967 4.27363 7.28672C4.26808 7.35196 4.26808 7.41756 4.27363 7.4828C4.31451 7.79546 4.43762 8.09164 4.63037 8.34107C4.82312 8.59049 5.0786 8.7842 5.37068 8.90238C5.44188 8.93291 5.51607 8.95591 5.59205 8.97101C5.37586 9.01361 5.15412 9.02024 4.93578 8.99062C4.88876 8.98081 4.87113 9.0063 4.88876 9.0514C5.17674 9.8357 5.80166 10.0749 6.26007 10.2082C6.32276 10.218 6.38545 10.218 6.45597 10.2337C6.45597 10.2337 6.45597 10.2337 6.44422 10.2455C6.30905 10.4926 5.76248 10.6592 5.51173 10.7455C5.05404 10.91 4.56606 10.9729 4.08165 10.9298C4.00525 10.918 3.98762 10.92 3.96803 10.9298C3.94844 10.9396 3.96803 10.9612 3.98958 10.9808C4.08753 11.0455 4.18548 11.1023 4.28735 11.1572C4.59061 11.3228 4.91122 11.4543 5.24334 11.5494C6.96336 12.0239 8.89886 11.6749 10.1898 10.3906C11.2046 9.38277 11.5612 7.99259 11.5612 6.60046C11.5612 6.54752 11.6258 6.51615 11.663 6.4887C11.9198 6.28848 12.1461 6.05204 12.335 5.78675C12.3677 5.7472 12.3844 5.69685 12.382 5.64557C12.382 5.61616 12.382 5.62204 12.3448 5.63773Z" fill="white"/>
</svg>
